# xmcd CD database file
#
# Track frame offsets:
#	150
#	32702
#	50061
#	82431
#	107466
#	134500
#	168451
#	201304
#	226552
#	254227
#	285907
#	322156
#
# Disc length: 4679 seconds
#
# Revision: 0
# Processed by: cddbd v1.5.2PL0 Copyright (c) Steve Scherf et al.
# Submitted via: CDex 1.51
#
DISCID=b312450c
DTITLE=Various Artist - Wandering Compilation
DYEAR=2010
DGENRE=New Age
TTITLE0=No Accident In Paradise - ICE
TTITLE1=Skyscraper - Ekelon - Shaping The Sky [Section II Edit]
TTITLE2=Mikrokristal - Owl-light Chill
TTITLE3=Krill.Minima - Gamelan
TTITLE4=SEAS - Arctic [Silent Season Edit]
TTITLE5=Inanitas - Deep-Hz
TTITLE6=Mr. Cloudy - Lumen
TTITLE7=Rie Lambdoll - Relapxych.0 - In The Maze
TTITLE8=Martin Schulte - Winter Sun
TTITLE9=Shinsuke Matsumoto - Bamboo Forest
TTITLE10=Ohrwert - Veluwe
TTITLE11=Mr. Zu - 137 Heaven [Ambient Meltdown Remix]
EXTD=YEAR: 2010
EXTT0=
EXTT1=
EXTT2=
EXTT3=
EXTT4=
EXTT5=
EXTT6=
EXTT7=
EXTT8=
EXTT9=
EXTT10=
EXTT11=
PLAYORDER=
